<?xml version="1.0" encoding="UTF-8" standalone="no"?>
<!-- Created with Inkscape (http://www.inkscape.org/) -->
<svg
   xmlns:dc="http://purl.org/dc/elements/1.1/"
   xmlns:cc="http://creativecommons.org/ns#"
   xmlns:rdf="http://www.w3.org/1999/02/22-rdf-syntax-ns#"
   xmlns:svg="http://www.w3.org/2000/svg"
   xmlns="http://www.w3.org/2000/svg"
   xmlns:sodipodi="http://sodipodi.sourceforge.net/DTD/sodipodi-0.dtd"
   xmlns:inkscape="http://www.inkscape.org/namespaces/inkscape"
   width="744.09448819"
   height="1052.3622047"
   id="svg2"
   sodipodi:version="0.32"
   inkscape:version="0.46+pre4"
   sodipodi:docname="verse number.svg"
   inkscape:output_extension="org.inkscape.output.svg.inkscape">
  <defs
     id="defs4">
    <inkscape:perspective
       sodipodi:type="inkscape:persp3d"
       inkscape:vp_x="0 : 526.18109 : 1"
       inkscape:vp_y="0 : 1000 : 0"
       inkscape:vp_z="744.09448 : 526.18109 : 1"
       inkscape:persp3d-origin="372.04724 : 350.78739 : 1"
       id="perspective10" />
  </defs>
  <sodipodi:namedview
     id="base"
     pagecolor="#ffffff"
     bordercolor="#666666"
     borderopacity="1.0"
     gridtolerance="10000"
     guidetolerance="10"
     objecttolerance="10"
     inkscape:pageopacity="0.0"
     inkscape:pageshadow="2"
     inkscape:zoom="0.7"
     inkscape:cx="503.0363"
     inkscape:cy="562.83061"
     inkscape:document-units="px"
     inkscape:current-layer="layer1"
     showgrid="false"
     inkscape:window-width="1280"
     inkscape:window-height="975"
     inkscape:window-x="-4"
     inkscape:window-y="-4" />
  <metadata
     id="metadata7">
    <rdf:RDF>
      <cc:Work
         rdf:about="">
        <dc:format>image/svg+xml</dc:format>
        <dc:type
           rdf:resource="http://purl.org/dc/dcmitype/StillImage" />
      </cc:Work>
    </rdf:RDF>
  </metadata>
  <g
     inkscape:label="Layer 1"
     inkscape:groupmode="layer"
     id="layer1">
    <path
       style="opacity:1;fill:#cccccc;fill-opacity:1;fill-rule:evenodd;stroke:#000000;stroke-width:1;stroke-linecap:round;stroke-linejoin:round;stroke-miterlimit:4;stroke-dasharray:none;stroke-dashoffset:0;stroke-opacity:1"
       d="M 342.99308,215.68678 C 330.3426,234.74035 307.28889,242.20805 286.89933,249.93678 C 267.67786,257.16889 248.48745,264.42718 228.55558,269.43678 C 203.17596,277.10166 176.64286,282.88611 153.61808,296.49928 C 149.27847,298.35882 156.4951,299.10354 157.36808,301.53053 C 167.44654,313.70976 166.91556,330.98446 165.02433,345.87428 C 162.37732,362.62086 152.99043,377.37497 149.89933,393.99928 C 139.41086,436.67385 143.76928,482.62295 161.36808,522.68678 C 166.99046,540.58593 167.36562,561.6568 157.49308,578.15553 C 156.45011,580.90308 151.86636,583.12961 151.46183,584.84303 C 171.32962,597.98475 195.12487,603.35148 217.58683,610.28053 C 240.11984,616.49047 262.60738,622.82106 283.96183,632.46803 C 304.87688,641.3333 327.7712,649.69403 342.64933,667.68678 C 344.62126,671.03314 346.73738,664.0291 349.11808,662.81178 C 370.20158,641.48229 400.54315,634.18444 427.39933,622.84303 C 461.31463,611.13425 497.48116,605.00847 529.21183,587.99928 C 531.11308,586.34384 537.41269,584.42123 532.36808,582.43678 C 518.88306,569.27443 519.50767,548.05076 523.43058,531.03053 C 528.11903,515.24694 535.71852,500.34836 538.52433,484.03053 C 547.29696,442.52948 543.96643,397.80522 525.55558,359.34303 C 519.59492,342.21932 518.10118,321.77807 527.05558,305.37428 C 528.36517,302.27042 532.40847,299.86137 533.93058,298.03053 C 512.91096,284.08185 487.84615,278.52366 464.02433,270.99928 C 442.85838,265.29585 422.09045,258.50632 401.71183,250.28053 C 382.71784,242.67298 361.82088,236.25155 347.36808,221.06178 C 345.61513,219.83169 344.12476,215.36319 342.99308,215.68678 z M 342.49308,247.31178 C 342.90058,247.29646 343.32754,247.29616 343.74308,247.31178 C 357.24052,246.72185 366.75705,263.58334 359.11808,274.78053 C 352.67737,286.54212 333.5703,286.05787 327.77433,273.93678 C 321.28608,262.83014 329.86062,247.78682 342.49308,247.31178 z M 305.96183,264.40553 C 307.19372,264.29329 305.53162,266.92318 305.96183,268.78053 C 293.82012,272.07509 280.82504,277.04495 269.49308,283.53053 C 251.09125,290.07818 234.50919,304.77695 230.58683,324.43678 C 224.13498,324.36723 217.45006,324.65136 211.18058,326.56178 C 198.11471,329.64234 191.05217,342.11284 184.46183,352.68678 C 187.48676,338.52226 188.04991,323.46955 183.74308,309.49928 C 180.6461,305.15087 185.20876,304.23428 188.71183,302.93678 C 228.27808,291.41715 267.47464,278.97554 305.96183,264.40553 z M 382.27433,264.62428 C 422.06253,282.04956 465.26312,289.8286 505.49308,306.06178 C 500.9314,320.39758 499.90593,335.92824 502.93058,350.68678 C 495.73368,332.85695 476.1973,322.22948 457.33683,323.81178 C 455.18833,311.49146 447.43996,300.62748 437.39933,293.40553 C 420.17829,284.64241 401.51193,273.22023 382.31652,269.05797 L 382.27433,264.62428 z M 312.21183,287.46803 C 323.50073,288.42546 330.65119,299.25505 337.30558,307.24928 C 339.62465,309.84056 341.85343,314.43344 343.86808,316.09303 C 351.46739,305.36938 359.34468,293.18096 371.89933,287.93678 C 382.7274,286.46359 392.33769,293.92893 402.08683,297.53053 C 412.46726,302.55956 423.83593,307.23623 432.11808,315.28053 C 438.21374,324.04863 436.89471,335.41249 439.18058,345.40553 C 451.53844,344.88214 465.76295,340.82401 476.89933,347.99928 C 490.65015,365.85436 499.11152,387.61096 503.71183,409.59303 C 512.27238,452.31911 503.13258,498.62894 477.71183,534.12428 C 468.14776,541.20883 455.07097,538.52314 443.99308,538.03053 C 438.11125,535.58329 438.98979,541.42872 438.55558,545.62428 C 437.47955,555.93351 435.57373,568.73031 424.74308,573.40553 C 410.95141,581.79792 396.18252,588.7365 381.02433,594.21803 C 370.4846,598.87462 361.74074,588.80191 355.49308,581.81178 C 351.23563,576.84918 347.34744,571.51159 343.64933,566.09303 C 335.53751,576.67781 328.20453,589.6654 315.39933,594.99928 C 304.94167,596.41845 295.58652,589.33101 286.21183,585.74928 C 275.41067,580.70644 264.16901,575.51195 255.11808,567.78053 C 248.3191,559.28473 247.57127,547.75709 247.68058,537.31178 C 235.4661,537.1429 221.58692,541.98943 210.49308,535.03053 C 185.45544,500.92048 175.73318,456.29969 182.77433,414.62428 C 186.82891,390.95552 195.66168,367.64814 210.11808,348.40553 C 220.33134,341.44416 233.80347,345.21064 245.30558,345.37428 C 250.49718,347.05632 247.5073,339.34478 248.86808,336.49928 C 249.8217,326.04428 252.46424,313.47835 263.43058,308.99928 C 276.99354,300.84454 291.49143,294.07641 306.33683,288.68678 C 308.2729,288.20385 310.20989,287.58895 312.21183,287.46803 z M 503.71183,530.96803 C 500.51152,546.15963 500.18838,562.69513 506.33683,577.28053 C 467.49807,592.07328 425.95678,600.7921 387.49308,617.24928 C 383.02403,620.26933 381.32512,619.55144 381.80558,614.40553 C 395.18206,612.32063 407.4046,606.09157 419.18058,599.74928 C 437.46908,593.51098 453.86287,578.81633 457.80558,559.34303 C 464.70197,559.32017 472.09005,558.84233 478.77433,556.43678 C 491.01509,553.01589 497.29006,541.21843 503.55558,531.21803 L 503.71183,530.96803 z M 184.46183,531.21803 C 184.5249,531.17518 184.95043,532.11571 185.14933,532.40553 C 192.03085,549.97314 211.24394,560.94085 229.93058,559.46803 C 232.45272,571.64792 240.41671,582.19919 250.30558,589.43678 C 267.18578,597.96565 283.33432,609.00297 301.99308,613.56178 C 306.83413,613.32264 307.0537,615.7811 306.14933,619.84303 C 266.57007,600.58124 222.06067,593.4285 181.08683,577.34303 C 185.43711,563.03778 187.59866,546.54022 184.46183,531.28053 C 184.45417,531.2284 184.45282,531.22415 184.46183,531.21803 z M 342.49308,601.93678 C 342.90058,601.92146 343.32754,601.92116 343.74308,601.93678 C 357.24052,601.34682 366.75705,618.20834 359.11808,629.40553 C 352.69682,641.2172 333.5435,640.71381 327.77433,628.56178 C 321.28608,617.45511 329.86062,602.41182 342.49308,601.93678 z"
       id="path2383"
       sodipodi:nodetypes="cccccccccccccccccccccccccccccccccccccccccccccccccccccccccccccccccccccccccccccccccccccccccccccccccc" />
  </g>
</svg>
